<svg version="1.0" xmlns="http://www.w3.org/2000/svg"
     width="32" height="32" viewBox="0 0 1024.000000 1024.000000"
     preserveAspectRatio="xMidYMid meet">

    <g transform="translate(0.000000,1024.000000) scale(0.100000,-0.100000)"
       fill="#FF6F61" stroke="none">
        <path d="M4480 9854 c-78 -21 -156 -78 -206 -151 -48 -70 -71 -157 -144 -528
-63 -326 -62 -324 -203 -371 -125 -42 -403 -153 -592 -238 -94 -42 -184 -76
-201 -76 -34 0 -60 17 -394 265 -264 196 -324 227 -435 226 -48 0 -75 -8 -135
-37 -71 -35 -97 -58 -487 -453 -438 -443 -475 -484 -519 -565 -23 -42 -29 -63
-28 -116 0 -113 37 -180 280 -511 175 -239 214 -298 214 -324 0 -18 -22 -83
-49 -144 -67 -148 -108 -253 -181 -456 -33 -93 -67 -180 -76 -193 -25 -38 -88
-59 -290 -97 -280 -53 -503 -104 -545 -125 -52 -27 -124 -112 -151 -178 l-23
-57 0 -605 0 -605 23 -58 c54 -134 122 -186 299 -228 103 -24 194 -42 524
-104 94 -18 119 -27 143 -53 10 -12 60 -130 112 -264 52 -134 124 -305 160
-380 55 -114 65 -143 60 -170 -3 -18 -45 -87 -93 -153 -223 -310 -359 -504
-382 -550 -21 -40 -26 -64 -25 -122 0 -63 4 -80 41 -155 41 -80 56 -97 470
-511 235 -235 454 -445 486 -468 64 -44 144 -65 206 -54 95 16 136 40 383 222
139 103 283 208 319 235 87 63 114 64 240 2 192 -94 339 -157 512 -220 98 -35
194 -72 214 -82 57 -26 78 -67 103 -199 63 -340 113 -562 139 -618 50 -108
130 -180 233 -210 50 -14 125 -16 660 -13 l603 3 67 32 c79 37 147 102 182
176 24 49 71 259 132 581 42 223 50 237 171 277 147 48 330 122 544 218 244
110 277 118 332 79 46 -32 145 -105 372 -273 236 -175 301 -210 395 -210 130
1 129 -1 651 523 l466 467 27 73 c32 89 33 129 5 211 -23 69 -72 144 -299 461
-167 233 -184 262 -177 300 3 15 36 92 72 171 37 79 103 235 146 347 96 247
112 278 147 296 15 8 92 26 172 41 555 102 633 127 706 222 18 23 42 68 53 99
21 55 22 66 19 668 l-3 611 -31 66 c-33 70 -84 128 -135 154 -51 27 -408 108
-639 145 -100 17 -175 45 -194 75 -9 14 -44 100 -77 193 -76 213 -122 326
-174 432 -55 110 -68 154 -61 193 4 18 38 75 77 127 79 106 206 283 291 405
98 141 136 239 124 323 -14 102 -33 125 -515 610 -398 401 -464 463 -516 488
-79 37 -182 44 -252 18 -42 -16 -241 -156 -564 -395 -140 -104 -140 -104 -354
-5 -88 40 -259 111 -380 156 -293 109 -333 127 -350 161 -8 15 -37 141 -65
281 -92 457 -107 506 -185 595 -21 25 -63 55 -103 75 l-67 33 -610 2 c-510 2
-619 0 -665 -13z m765 -1819 c28 -8 73 -29 100 -46 28 -18 519 -501 1106
-1088 l1057 -1056 22 -68 c18 -56 21 -85 18 -170 -5 -152 -27 -193 -210 -374
-120 -118 -155 -147 -213 -175 -65 -30 -77 -33 -170 -33 -87 0 -109 4 -170 29
-68 28 -82 41 -578 535 -279 278 -507 504 -507 501 0 -3 0 -498 0 -1100 -1
-820 2 -1104 11 -1130 18 -54 74 -116 126 -142 l48 -23 560 0 c502 0 563 -2
590 -17 17 -9 80 -67 140 -129 132 -135 128 -131 243 -243 105 -102 127 -144
120 -229 -3 -37 -13 -67 -34 -97 -64 -95 -337 -321 -599 -495 -361 -240 -822
-422 -1255 -494 -309 -52 -518 -61 -791 -35 -709 67 -1329 330 -1899 804 -159
133 -225 206 -244 270 -38 128 -27 147 247 422 182 182 234 229 264 237 24 7
240 9 578 8 529 -2 541 -2 585 19 56 26 107 76 131 129 18 38 19 96 19 1146
l0 1106 -487 -489 c-269 -269 -508 -502 -533 -519 -121 -81 -289 -90 -425 -22
-66 33 -332 299 -363 363 -54 114 -53 257 4 376 31 65 -20 13 1376 1416 712
716 757 760 820 789 109 50 195 56 313 24z"/>
    </g>
</svg>