<svg version="1.0" xmlns="http://www.w3.org/2000/svg"
     width="1024.000000pt" height="1024.000000pt" viewBox="0 0 1024.000000 1024.000000"
     preserveAspectRatio="xMidYMid meet">

    <g transform="translate(0.000000,1024.000000) scale(0.100000,-0.100000)"
       fill="#000000" stroke="none">
        <path d="M4717 8146 c-56 -20 -103 -60 -125 -108 -12 -24 -37 -133 -57 -247
-40 -224 -44 -238 -71 -262 -29 -26 -540 -219 -578 -219 -29 0 -53 17 -161
113 -174 153 -203 174 -258 188 -54 13 -104 6 -162 -23 -50 -25 -539 -518
-594 -600 -44 -64 -59 -133 -43 -191 12 -44 47 -95 179 -263 72 -92 103 -139
103 -158 0 -15 -18 -70 -41 -122 -22 -53 -71 -172 -109 -266 -79 -194 -91
-215 -128 -229 -14 -6 -113 -23 -220 -40 -106 -16 -210 -36 -230 -45 -47 -19
-88 -58 -115 -109 -21 -39 -22 -53 -25 -414 -3 -423 0 -457 55 -520 56 -66 88
-77 324 -111 118 -17 223 -37 235 -44 20 -14 264 -584 264 -619 0 -9 -57 -92
-126 -184 -155 -207 -168 -230 -169 -308 0 -49 6 -69 29 -110 44 -75 548 -575
608 -604 61 -29 139 -30 199 -4 24 11 94 64 154 119 188 169 194 174 219 174
35 0 557 -207 582 -231 32 -30 39 -53 79 -272 44 -246 62 -283 155 -333 32
-17 67 -19 405 -22 395 -3 419 -1 487 45 68 46 82 89 144 446 20 115 39 145
111 172 26 10 149 58 272 106 123 49 232 89 242 89 10 0 71 -48 136 -106 65
-58 141 -124 170 -146 93 -71 179 -82 271 -35 56 29 584 544 619 605 35 59 37
137 6 197 -12 22 -78 116 -147 208 -79 105 -126 177 -126 192 0 21 41 125 199
509 22 54 47 97 62 108 17 12 79 25 209 43 102 14 209 33 237 41 62 17 115 61
146 118 22 40 22 48 22 446 l0 405 -27 46 c-58 99 -102 118 -353 154 -99 15
-196 34 -215 43 -38 19 -25 -7 -181 379 -49 122 -89 231 -89 241 0 11 52 86
116 167 63 82 126 167 139 190 37 62 41 118 15 190 -21 56 -42 80 -319 356
-260 260 -302 298 -345 312 -61 21 -88 21 -152 2 -41 -12 -79 -40 -208 -155
-120 -107 -164 -140 -184 -140 -37 0 -561 204 -584 228 -15 14 -29 73 -59 241
-23 130 -48 239 -59 261 -23 45 -73 86 -127 106 -55 19 -751 19 -806 0z m536
-1314 c68 -37 1308 -1270 1337 -1329 14 -30 20 -62 20 -111 0 -90 -23 -126
-169 -262 -125 -116 -136 -124 -203 -140 -60 -15 -137 5 -194 51 -21 17 -157
148 -301 291 -144 143 -267 257 -273 253 -7 -4 -10 -227 -10 -684 l0 -678 23
-34 c36 -54 63 -57 432 -58 l330 -1 54 -25 c51 -24 116 -84 259 -237 47 -52
52 -61 52 -104 0 -62 -22 -95 -133 -200 -261 -246 -614 -423 -981 -493 -235
-45 -419 -49 -661 -16 -397 55 -763 222 -1061 486 -120 105 -154 155 -154 223
l0 51 138 136 c75 75 156 146 179 158 41 20 55 21 390 21 383 0 392 1 437 63
21 28 21 39 24 700 1 370 0 682 -3 695 -3 12 -10 22 -17 22 -6 0 -68 -57 -138
-127 -321 -322 -458 -452 -500 -473 -61 -31 -140 -31 -204 -1 -64 31 -259 224
-285 282 -27 59 -27 139 0 198 16 33 91 114 273 294 138 136 431 427 651 646
220 219 415 406 434 416 78 39 166 35 254 -13z"/>
    </g>
</svg>

